<svg xmlns="http://www.w3.org/2000/svg" width="807.063" height="562.976" viewBox="0 0 807.063 562.976">
  <g id="Group_1" data-name="Group 1" transform="translate(0)">
    <path id="Path_3" data-name="Path 3" d="M934.654,722.905c-18.9,13.616-43.394,14.3-67.07,12.627-3.306-.233-6.589-.507-9.841-.8-.02-.005-.045,0-.065-.008-.156-.015-.313-.03-.462-.039l-2.008-.189.157.3.493.93c-.177-.311-.354-.616-.531-.927-.052-.093-.111-.186-.162-.28-6.133-10.673-12.217-21.738-13.768-33.926-1.6-12.65,2.9-26.974,14.037-33.192a22.463,22.463,0,0,1,4.61-1.931c.666-.2,1.341-.366,2.023-.512a24.081,24.081,0,0,1,28,31.3c9.439-9.679,7.679-25.381,4.422-38.5s-7.212-27.725-.576-39.512c3.689-6.561,10.175-10.631,17.454-12.271.223-.048.446-.1.67-.138a35.144,35.144,0,0,1,25.249,4.424c13.919,8.771,21.068,25.4,23.388,41.692C964.416,678.167,956.143,707.423,934.654,722.905Z" transform="translate(-214.297 -173.524)" fill="#f2f2f2"/>
    <path id="Path_4" data-name="Path 4" d="M928.552,680.882a59.743,59.743,0,0,1-4.123,16.835,51.875,51.875,0,0,1-8.054,13.156,66.465,66.465,0,0,1-25.531,18.409,95.656,95.656,0,0,1-23.26,6.25c-3.306-.233-6.589-.507-9.841-.8-.02-.005-.045,0-.065-.008-.156-.015-.313-.03-.462-.039l-2.008-.189.157.3.493.93c-.177-.311-.354-.616-.531-.927-.052-.093-.111-.186-.162-.28a52.411,52.411,0,0,0,4.879-69.049c.666-.2,1.341-.366,2.023-.512a55.3,55.3,0,0,1,5.044,8.354,54.179,54.179,0,0,1,4.675,33.706,55.392,55.392,0,0,1-14.034,27.629c.631-.044,1.269-.1,1.893-.153,11.818-1,23.613-3.542,34.332-8.746a61.832,61.832,0,0,0,23.163-19.006c6.492-8.953,9.353-19.723,9.844-30.669a129.426,129.426,0,0,0-3.674-35.039A147.068,147.068,0,0,0,910.95,607.37a1.057,1.057,0,0,1,.42-1.4.9.9,0,0,1,.67-.138.783.783,0,0,1,.517.443c.676,1.319,1.339,2.638,1.977,3.973a148.737,148.737,0,0,1,11.644,34.924C928.527,656.827,929.781,669.016,928.552,680.882Z" transform="translate(-214.297 -173.524)" fill="#fff"/>
    <path id="Path_5" data-name="Path 5" d="M213.795,345.626a4.535,4.535,0,0,1-1.645-.311,4.475,4.475,0,0,1-2.87-4.2V294.086a6.012,6.012,0,0,0-6-6h-9.631a15.026,15.026,0,0,1-15.01-15.009V178.509A15.026,15.026,0,0,1,193.644,163.5H533.37a15.026,15.026,0,0,1,15.009,15.009v94.563a15.026,15.026,0,0,1-15.009,15.009H271.15a6.021,6.021,0,0,0-4.427,1.947L217.1,344.162A4.476,4.476,0,0,1,213.795,345.626ZM193.644,165.5a13.024,13.024,0,0,0-13.009,13.009v94.563a13.024,13.024,0,0,0,13.009,13.009h9.631a8.014,8.014,0,0,1,8,8v47.033a2.5,2.5,0,0,0,4.347,1.691l49.622-54.133a8.025,8.025,0,0,1,5.9-2.6H533.37a13.024,13.024,0,0,0,13.009-13.009V178.509A13.024,13.024,0,0,0,533.37,165.5Z" transform="translate(-178.635 -163.5)" fill="#ccc"/>
    <circle id="Ellipse_1" data-name="Ellipse 1" cx="13.134" cy="13.134" r="13.134" transform="translate(23.682 16.323)" fill="#ccc"/>
    <path id="Path_6" data-name="Path 6" d="M518.047,265.63H208.967a7,7,0,1,1,0-14.009h309.08a7,7,0,0,1,0,14.009Z" transform="translate(-178.635 -163.5)" fill="#ccc"/>
    <path id="Path_7" data-name="Path 7" d="M417.355,235.86H208.967a7,7,0,1,1,0-14.009H417.355a7,7,0,0,1,0,14.009Z" transform="translate(-178.635 -163.5)" fill="#ccc"/>
    <path id="Path_8" data-name="Path 8" d="M213.795,679.222a4.534,4.534,0,0,1-1.645-.311,4.475,4.475,0,0,1-2.87-4.2V627.682a6.012,6.012,0,0,0-6-6h-9.631a15.026,15.026,0,0,1-15.01-15.009V512.106A15.026,15.026,0,0,1,193.644,497.1H533.37a15.026,15.026,0,0,1,15.009,15.009v94.563a15.026,15.026,0,0,1-15.009,15.009H271.15a6.021,6.021,0,0,0-4.427,1.947L217.1,677.758A4.476,4.476,0,0,1,213.795,679.222ZM193.645,499.1a13.024,13.024,0,0,0-13.01,13.009v94.563a13.024,13.024,0,0,0,13.009,13.009h9.631a8.014,8.014,0,0,1,8,8v47.033a2.5,2.5,0,0,0,4.347,1.691l49.622-54.133a8.025,8.025,0,0,1,5.9-2.6H533.37a13.024,13.024,0,0,0,13.009-13.009V512.106A13.024,13.024,0,0,0,533.37,499.1Z" transform="translate(-178.635 -173.524)" fill="#ccc"/>
    <path id="Path_9" data-name="Path 9" d="M715.478,505.857a4.475,4.475,0,0,1-3.307-1.464l-49.622-54.133a6.02,6.02,0,0,0-4.426-1.947H395.9A15.026,15.026,0,0,1,380.894,433.3V338.74A15.026,15.026,0,0,1,395.9,323.731H735.629a15.026,15.026,0,0,1,15.009,15.009V433.3a15.026,15.026,0,0,1-15.009,15.009H726a6.012,6.012,0,0,0-6,6V501.35a4.474,4.474,0,0,1-2.87,4.2A4.526,4.526,0,0,1,715.478,505.857ZM395.9,325.731a13.024,13.024,0,0,0-13.009,13.009V433.3A13.024,13.024,0,0,0,395.9,446.312h262.22a8.024,8.024,0,0,1,5.9,2.6l49.622,54.133a2.5,2.5,0,0,0,4.347-1.691V454.317a8.014,8.014,0,0,1,8-8h9.631A13.024,13.024,0,0,0,748.638,433.3V338.74a13.024,13.024,0,0,0-13.009-13.009Z" transform="translate(-193.885 -167.609)" fill="#3f3d56"/>
    <circle id="Ellipse_2" data-name="Ellipse 2" cx="13.134" cy="13.134" r="13.134" transform="translate(23.682 343.503)" fill="#ccc"/>
    <path id="Path_10" data-name="Path 10" d="M518.047,599.226H208.967a7,7,0,1,1,0-14.009h309.08a7,7,0,0,1,0,14.009Z" transform="translate(-178.635 -171.063)" fill="#ccc"/>
    <path id="Path_11" data-name="Path 11" d="M417.355,569.456H208.967a7,7,0,1,1,0-14.009H417.355a7,7,0,0,1,0,14.009Z" transform="translate(-178.635 -170.529)" fill="#ccc"/>
    <circle id="Ellipse_3" data-name="Ellipse 3" cx="13.134" cy="13.134" r="13.134" transform="translate(216.072 172.457)" fill="#3f3d56"/>
    <path id="Path_12" data-name="Path 12" d="M720.306,424.985H411.226a7,7,0,0,1,0-14.009h309.08a7,7,0,0,1,0,14.009Z" transform="translate(-194.117 -167.938)" fill="#6c63ff"/>
    <path id="Path_13" data-name="Path 13" d="M619.614,395.215H411.226a7,7,0,0,1,0-14.009H619.614a7,7,0,1,1,0,14.009Z" transform="translate(-191.604 -167.404)" fill="#6c63ff"/>
    <path id="Path_14" data-name="Path 14" d="M720.171,523.859a10.056,10.056,0,0,1,13.594-7.277l23.459-26.956,4.983,17.889L739.166,530.37a10.11,10.11,0,0,1-18.995-6.511Z" transform="translate(-202.751 -169.709)" fill="#ffb8b8"/>
    <circle id="Ellipse_4" data-name="Ellipse 4" cx="24.561" cy="24.561" r="24.561" transform="translate(616.712 181.205)" fill="#ffb8b8"/>
    <path id="Path_15" data-name="Path 15" d="M641.436,547.373H629.177l-5.833-47.288h18.1Z" transform="translate(-26.957 -10.024)" fill="#ffb8b8"/>
    <path id="Path_16" data-name="Path 16" d="M823.2,722.757H783.667v-.5a15.386,15.386,0,0,1,15.387-15.386H823.2Z" transform="translate(-205.499 -173.524)" fill="#2f2e41"/>
    <path id="Path_17" data-name="Path 17" d="M678.436,560.373H666.177l-1.7-46.158,13.96-1.129Z" transform="translate(-28.593 -10.024)" fill="#ffb8b8"/>
    <path id="Path_18" data-name="Path 18" d="M860.2,735.757H820.667v-.5a15.386,15.386,0,0,1,15.387-15.386H860.2Z" transform="translate(-207.141 -173.524)" fill="#2f2e41"/>
    <path id="Path_19" data-name="Path 19" d="M853.584,715.243l-9.547-1.124a4.512,4.512,0,0,1-3.974-4.4l-1.789-124.339a1.5,1.5,0,0,0-2.914-.478l-13.246,37.4.947,70.1a4.5,4.5,0,0,1-4.229,4.553l-12.464.529a4.527,4.527,0,0,1-4.744-3.925l-6.51-79.3,0-.05,9.877-82.819,74.183,5.367L858.579,711.3a4.507,4.507,0,0,1-4.466,3.973,4.4,4.4,0,0,1-.529-.032Z" transform="translate(-207.613 -173.524)" fill="#2f2e41"/>
    <path id="Path_20" data-name="Path 20" d="M805.306,538.728a4.473,4.473,0,0,1-2.355-3.618s6.671-41.484,9.115-42.263l-5.349-44.363a40.909,40.909,0,0,1,8.781-30.49,39.013,39.013,0,0,1,27.031-14.483q1.121-.1,2.23-.154a39.368,39.368,0,0,1,33.134,15.082,40.12,40.12,0,0,1,7.219,36.406l-3,10.44v72.956a4.555,4.555,0,0,1-1.862,3.653c-9.341,6.855-19.9,9.279-30.156,9.279C830.686,551.173,812.34,542.493,805.306,538.728Z" transform="translate(-207.971 -169.154)" fill="#6c63ff"/>
    <path id="Path_21" data-name="Path 21" d="M747.716,525.377l-12.9-9.648a4.5,4.5,0,0,1-.6-6.672l76.863-82.474a15.053,15.053,0,0,1,19.521-2.075h0a14.978,14.978,0,0,1,1.925,22.976l-78.964,77.5a4.472,4.472,0,0,1-5.362.708,4.616,4.616,0,0,1-.485-.316Z" transform="translate(-205.398 -169.027)" fill="#6c63ff"/>
    <path id="Path_22" data-name="Path 22" d="M846.465,514.457a10.056,10.056,0,0,1,14.715-4.607l28.086-22.094,1.55,18.5-26.909,18.144a10.11,10.11,0,0,1-17.442-9.948Z" transform="translate(-208.46 -169.607)" fill="#ffb8b8"/>
    <path id="Path_23" data-name="Path 23" d="M871.6,523.082a4.464,4.464,0,0,1-3.023-3.249l-2.837-11.916a4.437,4.437,0,0,1,1.65-4.612l19.089-20.645-28.079-43.3a15.242,15.242,0,1,1,25.833-15.632l26.1,50.81a23.118,23.118,0,0,1-7.721,29.795l-26.676,17.82a4.461,4.461,0,0,1-2.97,1.137,4.55,4.55,0,0,1-1.37-.213Z" transform="translate(-214.297 -168.92)" fill="#6c63ff"/>
    <path id="Path_24" data-name="Path 24" d="M867.125,394.758a4.4,4.4,0,0,1-6.493-2.565l-.015-.061c-.5-2.044-.105-4.182.024-6.282s-.089-4.4-1.527-5.941c-2.681-2.863-7.414-1.312-11.271-2.019a9.511,9.511,0,0,1-7.453-10.117c.053-.437.136-.874.23-1.311a7.325,7.325,0,0,0-7.651-8.83c-3.893.244-8.091,1.446-11.329-1.421a8.351,8.351,0,0,1-2.053-8.992c1.812-5.321,7-8.129,12.135-9.685a44.588,44.588,0,0,1,37.826,6c3.263,2.274,6.314,5.136,7.719,8.856s.762,8.427-2.349,10.9a20.123,20.123,0,0,1,4.765,19.521C878.167,387.794,870.829,392.6,867.125,394.758Z" transform="translate(-207.867 -166.863)" fill="#2f2e41"/>
    <path id="Path_25" data-name="Path 25" d="M1021.36,735.5a1,1,0,0,1-1,1h-381a1,1,0,0,1,0-2h381a1,1,0,0,1,1,1Z" transform="translate(-214.297 -173.524)" fill="#3f3d56"/>
  </g>
</svg>
